<?xml version="1.0" standalone="no"?>
<!DOCTYPE svg PUBLIC "-//W3C//DTD SVG 20010904//EN"
 "http://www.w3.org/TR/2001/REC-SVG-20010904/DTD/svg10.dtd">
<svg version="1.0" xmlns="http://www.w3.org/2000/svg"
 width="512.000000pt" height="512.000000pt" viewBox="0 0 512.000000 512.000000"
 preserveAspectRatio="xMidYMid meet">
<metadata>
Created by potrace 1.11, written by Peter Selinger 2001-2013
</metadata>
<g transform="translate(0.000000,512.000000) scale(0.100000,-0.100000)"
fill="#000000" stroke="none">
<path d="M3655 3507 c-3 -7 -4 -80 -3 -162 l3 -150 170 0 170 0 0 160 0 160
-168 3 c-131 2 -169 0 -172 -11z"/>
<path d="M4165 3508 c-3 -7 -4 -420 -3 -918 l3 -905 155 -3 c85 -1 165 0 178
3 l22 5 -2 913 -3 912 -173 3 c-132 2 -174 0 -177 -10z"/>
<path d="M84 3487 c-2 -7 -3 -78 -2 -157 l3 -145 260 -5 260 -5 5 -737 c3
-405 7 -739 10 -741 3 -3 91 -7 195 -9 l190 -3 5 745 5 745 260 3 c192 2 261
6 267 15 9 14 11 268 2 291 -6 14 -79 16 -730 16 -584 0 -726 -3 -730 -13z"/>
<path d="M2090 3055 c-14 -8 -33 -14 -43 -15 -31 0 -118 -54 -158 -98 -44 -47
-47 -44 -51 38 l-3 55 -165 0 -165 0 -3 -671 -2 -672 42 -5 c24 -3 102 -6 175
-7 121 -1 133 1 142 19 7 13 11 154 11 405 l0 385 24 56 c26 56 89 125 117
125 8 0 19 4 25 9 16 15 154 32 205 25 l49 -7 0 181 c0 178 0 180 -22 186 -43
11 -153 6 -178 -9z"/>
<path d="M2720 3055 c-19 -7 -47 -14 -63 -14 -15 -1 -35 -5 -45 -10 -9 -5 -37
-19 -62 -32 -25 -12 -55 -27 -67 -34 -23 -12 -100 -112 -119 -155 -22 -49 -44
-137 -44 -178 l0 -42 169 0 c184 0 181 -1 181 58 0 30 46 88 86 108 50 26 143
36 213 24 79 -15 125 -46 141 -96 10 -30 9 -42 -6 -76 -26 -58 -61 -73 -231
-98 -35 -5 -72 -14 -82 -20 -11 -5 -37 -10 -59 -10 -22 0 -56 -7 -75 -15 -20
-8 -48 -15 -62 -15 -44 0 -225 -99 -225 -123 0 -5 -11 -25 -25 -43 -14 -18
-25 -39 -25 -46 0 -8 -5 -19 -11 -25 -11 -11 -31 -129 -31 -183 0 -37 18 -130
33 -170 29 -73 159 -180 221 -180 13 0 30 -6 36 -12 9 -9 54 -13 152 -13 98 0
143 4 151 13 7 6 24 12 37 12 30 0 127 45 173 82 20 15 41 28 47 28 11 0 22
-34 22 -72 0 -36 11 -38 190 -35 l145 2 0 470 c0 455 -6 570 -33 621 -5 11
-18 37 -28 58 -39 82 -197 206 -263 206 -10 0 -38 7 -61 15 -56 20 -328 20
-380 0z m400 -828 c0 -83 -3 -97 -29 -142 -40 -69 -75 -102 -148 -136 -52 -24
-75 -29 -141 -29 -65 0 -84 4 -106 21 -38 30 -56 71 -56 127 0 41 5 55 35 89
37 44 106 83 146 83 13 1 35 7 49 15 14 8 38 14 54 15 34 0 84 15 140 41 22
10 43 16 48 13 4 -3 8 -47 8 -97z"/>
<path d="M3657 3034 c-4 -4 -7 -308 -7 -675 l0 -667 63 -6 c34 -3 112 -4 172
-3 l110 2 0 675 0 675 -166 3 c-91 1 -168 -1 -172 -4z"/>
<path d="M4662 2048 c-17 -17 -17 -327 1 -351 11 -16 32 -17 192 -15 l180 3 0
185 0 185 -180 3 c-132 2 -184 -1 -193 -10z"/>
</g>
</svg>
